<svg width="72" height="72" viewBox="0 0 72 72" fill="none" xmlns="http://www.w3.org/2000/svg">
<g id="&#229;&#138;&#160;&#232;&#189;&#189;&#229;&#164;&#177;&#232;&#180;&#165;">
<g id="Union" opacity="0.6">
<path fill-rule="evenodd" clip-rule="evenodd" d="M25.1668 32.6667L40.1668 16H12.6668C10.8259 16 9.3335 17.4924 9.3335 19.3333V52.6667C9.3335 54.5076 10.8259 56 12.6668 56H22.6668L32.6668 42.6667L25.1668 32.6667ZM32.6668 19.3333L12.6668 19.3333V41L32.6668 19.3333Z" fill="#C9CDD4"/>
<path d="M50.1668 32.6667C52.468 32.6667 54.3335 30.8012 54.3335 28.5C54.3335 26.1988 52.468 24.3333 50.1668 24.3333C47.8656 24.3333 46.0002 26.1988 46.0002 28.5C46.0002 30.8012 47.8656 32.6667 50.1668 32.6667Z" fill="#C9CDD4"/>
<path fill-rule="evenodd" clip-rule="evenodd" d="M36.0002 32.6667L47.6668 16H59.3335C61.1744 16 62.6668 17.4924 62.6668 19.3333V52.6667C62.6668 54.5076 61.1744 56 59.3335 56H31.0002L42.6668 42.6667L36.0002 32.6667ZM49.4349 19.3333L40.1668 32.6667L59.3335 49.3333V19.3333H49.4349Z" fill="#C9CDD4"/>
</g>
</g>
</svg>
