<svg xmlns="http://www.w3.org/2000/svg" width="16" height="16" viewBox="0 0 16 16" fill="none">
    <path d="M15 8C15 11.866 11.866 15 8 15C4.13401 15 1 11.866 1 8C1 4.13401 4.13401 1 8 1C11.866 1 15 4.13401 15 8ZM3.1 8C3.1 10.7062 5.2938 12.9 8 12.9C10.7062 12.9 12.9 10.7062 12.9 8C12.9 5.2938 10.7062 3.1 8 3.1C5.2938 3.1 3.1 5.2938 3.1 8Z" fill="white"/>
    <path d="M15 8C15 9.38447 14.5895 10.7378 13.8203 11.889C13.0511 13.0401 11.9579 13.9373 10.6788 14.4672C9.3997 14.997 7.99223 15.1356 6.63437 14.8655C5.2765 14.5954 4.02922 13.9287 3.05025 12.9497C2.07128 11.9708 1.4046 10.7235 1.1345 9.36563C0.864406 8.00777 1.00303 6.6003 1.53284 5.32122C2.06266 4.04213 2.95986 2.94888 4.11101 2.17971C5.26215 1.41054 6.61553 1 8 1V3.1C7.03087 3.1 6.08351 3.38738 5.27771 3.9258C4.4719 4.46422 3.84386 5.22949 3.47299 6.12485C3.10212 7.02021 3.00508 8.00544 3.19415 8.95594C3.38322 9.90645 3.8499 10.7795 4.53518 11.4648C5.22045 12.1501 6.09355 12.6168 7.04406 12.8058C7.99456 12.9949 8.97979 12.8979 9.87515 12.527C10.7705 12.1561 11.5358 11.5281 12.0742 10.7223C12.6126 9.91649 12.9 8.96913 12.9 8H15Z" fill="#AEB5C5"/>
</svg>